<svg xmlns="http://www.w3.org/2000/svg" version="1.1" xmlns:xlink="http://www.w3.org/1999/xlink" xmlns:svgjs="http://svgjs.dev/svgjs" width="1000" height="623" viewBox="0 0 1000 623"><g transform="matrix(1,0,0,1,-0.6060606060606233,100.67439692471271)"><svg viewBox="0 0 396 247" data-background-color="#ffffff" preserveAspectRatio="xMidYMid meet" height="623" width="1000" xmlns="http://www.w3.org/2000/svg" xmlns:xlink="http://www.w3.org/1999/xlink"><g id="tight-bounds" transform="matrix(1,0,0,1,0.2400000000000091,-0.09999999999999432)"><svg viewBox="0 0 395.52 247.2" height="247.2" width="395.52"><g><svg></svg></g><g><svg viewBox="0 0 395.52 247.2" height="247.2" width="395.52"><g transform="matrix(1,0,0,1,75.54432,48.93774077634011)"><svg viewBox="0 0 244.43135999999998 149.32451844731978" height="149.32451844731978" width="244.43135999999998"><g><svg viewBox="0 0 244.43135999999998 149.32451844731978" height="149.32451844731978" width="244.43135999999998"><g><svg viewBox="0 0 244.43135999999998 149.32451844731978" height="149.32451844731978" width="244.43135999999998"><g><svg viewBox="0 0 244.43135999999998 149.32451844731978" height="149.32451844731978" width="244.43135999999998"><g id="textblocktransform"><svg viewBox="0 0 244.43135999999998 149.32451844731978" height="149.32451844731978" width="244.43135999999998" id="textblock"><g><svg viewBox="0 0 244.43135999999998 149.32451844731978" height="149.32451844731978" width="244.43135999999998"><g transform="matrix(1,0,0,1,0,0)"><svg width="244.43135999999998" viewBox="1 -33.04999923706055 54.099998474121094 33.04999923706055" height="149.32451844731978" data-palette-color="#000000"><path d="M26.55 0L1 0 1-1 18.45-31.55 9.15-31.55Q7.6-31.55 6.65-30.8 5.7-30.05 5-28.7L5-28.7 2.9-24.75 1.55-24.75 1.9-33.05 26.25-33.05 26.25-32.05 8.8-1.5 19.45-1.5Q21-1.5 21.9-2.27 22.8-3.05 23.5-4.45L23.5-4.45 25.55-8.3 26.9-8.3 26.55 0ZM42.3 0L29.1 0 29.1-1.05 30.1-1.3Q31.1-1.6 31.4-2.2 31.7-2.8 31.7-3.85L31.7-3.85Q31.75-6.7 31.75-9.63 31.75-12.55 31.75-15.5L31.75-15.5 31.75-17.55Q31.75-20.45 31.75-23.35 31.75-26.25 31.7-29.15L31.7-29.15Q31.7-30.2 31.37-30.78 31.05-31.35 30.05-31.7L30.05-31.7 29.1-32 29.1-33.05 41.15-33.05Q48.45-33.05 51.77-30.33 55.1-27.6 55.1-23.15L55.1-23.15Q55.1-20.35 53.72-17.98 52.35-15.6 49.2-14.2 46.05-12.8 40.7-12.8L40.7-12.8 38.9-12.8Q38.9-10.7 38.9-8.47 38.9-6.25 38.95-3.95L38.95-3.95Q38.95-1.9 40.8-1.45L40.8-1.45 42.3-1.05 42.3 0ZM38.9-17.55L38.9-14.25 41-14.25Q43.5-14.25 45.07-15.03 46.65-15.8 47.42-17.7 48.2-19.6 48.2-22.95L48.2-22.95Q48.2-26.3 47.37-28.18 46.55-30.05 44.9-30.83 43.25-31.6 40.8-31.6L40.8-31.6 38.95-31.6Q38.9-28.15 38.9-24.63 38.9-21.1 38.9-17.55L38.9-17.55Z" opacity="1" transform="matrix(1,0,0,1,0,0)" fill="#000000" class="wordmark-text-0" data-fill-palette-color="primary" id="text-0"></path></svg></g></svg></g></svg></g></svg></g><g></g></svg></g></svg></g></svg></g><g><path d="M144.323 13.686A122.216 122.216 0 0 1 251.197 13.686L237.731 13.686A108.749 108.749 0 0 0 157.789 13.686L144.323 13.686M144.323 233.514A122.216 122.216 0 0 0 251.197 233.514L237.731 233.514A108.749 108.749 0 0 1 157.789 233.514L144.323 233.514" fill="#000000" stroke="transparent" data-fill-palette-color="tertiary"></path></g></svg></g><defs></defs></svg><rect width="395.52" height="247.2" fill="none" stroke="none" visibility="hidden"></rect></g></svg></g></svg>